STARTFONT 2.1
FONT -sun-conga-medium-r-normal--24-240-75-75-p-165-adobe-fontspecific
SIZE 24 75 75
FONTBOUNDINGBOX 37 28 -6 -5

STARTPROPERTIES 28
FOUNDRY "sun"
FAMILY_NAME "conga"
WEIGHT_NAME "medium"
SLANT "r"
SETWIDTH_NAME "normal"
ADD_STYLE_NAME ""
PIXEL_SIZE 25
POINT_SIZE 240
RESOLUTION_X 75
RESOLUTION_Y 75
SPACING "p"
AVERAGE_WIDTH 165
CHARSET_REGISTRY "adobe"
CHARSET_ENCODING "fontspecific"
COPYRIGHT "© 1999 Sun Microsystems, Inc."
RAW_PIXELSIZE 1000
RAW_POINTSIZE 964
RAW_ASCENT 927
RAW_DESCENT 211
RAW_AVERAGE_WIDTH 6603
FACE_NAME "CongaNormal"
_XMBDFED_INFO "Edited with xmbdfed 2.4."
WEIGHT 10
X_HEIGHT -2
QUAD_WIDTH 16
DEFAULT_CHAR 4
FONT_DESCENT 5
FONT_ASCENT 23
ENDPROPERTIES

CHARS 203

STARTCHAR char32
ENCODING 32
SWIDTH 6 0
DWIDTH 12 0
BBX 0 0 0 0
BITMAP
ENDCHAR

STARTCHAR char33
ENCODING 33
SWIDTH 21 0
DWIDTH 6 0
BBX 4 18 1 0
BITMAP
F0
60
60
60
60
40
40
40
40
40
40
40
40
00
00
60
60
60
ENDCHAR

STARTCHAR char34
ENCODING 34
SWIDTH 28 0
DWIDTH 8 0
BBX 5 5 1 13
BITMAP
D8
D8
48
48
48
ENDCHAR

STARTCHAR char35
ENCODING 35
SWIDTH 17 0
DWIDTH 15 0
BBX 12 18 1 0
BITMAP
0C60
0C40
0840
08C0
18C0
FFF0
18C0
1880
1880
1180
1180
FFE0
FFE0
3180
3180
3100
2100
2300
ENDCHAR

STARTCHAR char36
ENCODING 36
SWIDTH 35 0
DWIDTH 20 0
BBX 16 23 0 -3
BITMAP
00C0
00C0
00C0
0FF8
1CCF
30C3
60C2
60C0
60C0
70C0
3FC0
07FC
00CE
00C3
00C3
40C3
40C3
70C6
1EDE
03F8
00C0
00C0
00C0
ENDCHAR

STARTCHAR char37
ENCODING 37
SWIDTH 2 0
DWIDTH 31 0
BBX 27 18 0 0
BITMAP
0F001000
31801000
60C02000
40604000
C030C000
C0318000
C0310000
C0321F00
40646180
60CCC0C0
3F988060
00118060
00218060
00418060
00C08060
0180C0C0
01006180
01001F00
ENDCHAR

STARTCHAR char38
ENCODING 38
SWIDTH 2 0
DWIDTH 21 0
BBX 18 18 1 0
BITMAP
07C000
18E000
387000
303000
303000
303000
182000
0CE080
1FC180
706340
603600
C03C00
C03C00
C03800
C03C00
606E00
3CC780
1F8180
ENDCHAR

STARTCHAR char39
ENCODING 39
SWIDTH 14 0
DWIDTH 4 0
BBX 2 5 1 13
BITMAP
80
80
C0
C0
C0
ENDCHAR

STARTCHAR char40
ENCODING 40
SWIDTH 28 0
DWIDTH 8 0
BBX 5 18 1 0
BITMAP
08
10
20
60
40
40
C0
C0
C0
C0
C0
C0
C0
60
60
30
18
18
ENDCHAR

STARTCHAR char41
ENCODING 41
SWIDTH 28 0
DWIDTH 8 0
BBX 5 18 1 0
BITMAP
80
C0
60
30
30
10
18
18
18
18
18
18
18
30
30
60
60
C0
ENDCHAR

STARTCHAR char42
ENCODING 42
SWIDTH 10 0
DWIDTH 13 0
BBX 10 10 1 8
BITMAP
1E00
0C00
4C40
CCC0
FBC0
9E00
1C00
3600
7380
2100
ENDCHAR

STARTCHAR char43
ENCODING 43
SWIDTH 28 0
DWIDTH 18 0
BBX 14 15 1 0
BITMAP
0300
0300
0300
0300
0300
0300
0300
FFFC
0300
0300
0300
0300
0300
0300
0300
ENDCHAR

STARTCHAR char44
ENCODING 44
SWIDTH 17 0
DWIDTH 5 0
BBX 2 5 1 -3
BITMAP
C0
C0
40
40
40
ENDCHAR

STARTCHAR char45
ENCODING 45
SWIDTH 28 0
DWIDTH 8 0
BBX 6 1 1 7
BITMAP
FC
ENDCHAR

STARTCHAR char46
ENCODING 46
SWIDTH 17 0
DWIDTH 5 0
BBX 2 3 1 0
BITMAP
C0
C0
C0
ENDCHAR

STARTCHAR char47
ENCODING 47
SWIDTH 31 0
DWIDTH 19 0
BBX 16 18 0 0
BITMAP
0001
0003
0006
000C
0008
0010
0020
0060
00C0
0180
0300
0600
0400
0800
1000
3000
6000
4000
ENDCHAR

STARTCHAR char48
ENCODING 48
SWIDTH 2 0
DWIDTH 21 0
BBX 18 18 1 0
BITMAP
07E000
0E1800
380E00
300700
600380
E00180
C001C0
C000C0
C000C0
C000C0
C000C0
C000C0
C00180
600380
600300
300600
1C1C00
07F000
ENDCHAR

STARTCHAR char49
ENCODING 49
SWIDTH 2 0
DWIDTH 21 0
BBX 5 18 7 0
BITMAP
38
18
F8
F8
98
18
18
18
18
18
18
18
18
18
18
18
18
18
ENDCHAR

STARTCHAR char50
ENCODING 50
SWIDTH 2 0
DWIDTH 21 0
BBX 16 18 2 0
BITMAP
07E0
1E38
381C
700E
6006
2006
0006
000C
001C
0070
01C0
0700
0C00
1800
3000
2000
6001
7FFE
ENDCHAR

STARTCHAR char51
ENCODING 51
SWIDTH 2 0
DWIDTH 21 0
BBX 15 18 2 0
BITMAP
07E0
1C78
701C
E00C
4004
0004
000C
0418
07F0
0418
000C
0006
0006
4006
C006
E00C
3838
0FE0
ENDCHAR

STARTCHAR char52
ENCODING 52
SWIDTH 2 0
DWIDTH 21 0
BBX 17 18 1 0
BITMAP
003C00
003C00
003C00
006C00
00CC00
018C00
038C00
070C00
060C00
0C0C00
180C00
300C00
600C80
FFFF80
800C80
000C00
000C00
000C00
ENDCHAR

STARTCHAR char53
ENCODING 53
SWIDTH 2 0
DWIDTH 21 0
BBX 15 18 2 0
BITMAP
7FFC
6004
6004
6000
6000
6000
67F0
FC38
300C
1006
0006
0006
0006
4006
4006
F00C
3838
0FE0
ENDCHAR

STARTCHAR char54
ENCODING 54
SWIDTH 2 0
DWIDTH 21 0
BBX 16 18 2 0
BITMAP
03F0
0E3D
180E
3006
7000
6000
4000
C3F0
CC1C
D80E
F007
E003
E003
6003
7006
380E
1C38
07F0
ENDCHAR

STARTCHAR char55
ENCODING 55
SWIDTH 2 0
DWIDTH 21 0
BBX 16 18 1 0
BITMAP
FFFF
8007
8006
000C
000C
0018
0018
0030
0030
0060
0060
00C0
01C0
0180
0380
0300
0700
0600
ENDCHAR

STARTCHAR char56
ENCODING 56
SWIDTH 2 0
DWIDTH 21 0
BBX 16 18 2 0
BITMAP
0FE0
3C18
700E
C006
C006
C006
600E
7E1C
3FF8
701C
C006
C003
8003
C003
C006
600E
3838
0FE0
ENDCHAR

STARTCHAR char57
ENCODING 57
SWIDTH 2 0
DWIDTH 21 0
BBX 15 18 2 0
BITMAP
0FC0
18F0
7038
601C
C00C
C00E
C00E
C00E
601E
3036
0FC6
0006
0004
000C
401C
E018
7070
1FC0
ENDCHAR

STARTCHAR char58
ENCODING 58
SWIDTH 21 0
DWIDTH 6 0
BBX 2 11 2 0
BITMAP
C0
C0
C0
00
00
00
00
00
C0
C0
C0
ENDCHAR

STARTCHAR char59
ENCODING 59
SWIDTH 21 0
DWIDTH 6 0
BBX 2 14 2 -3
BITMAP
C0
C0
C0
00
00
00
00
00
00
C0
C0
40
40
40
ENDCHAR

STARTCHAR char60
ENCODING 60
SWIDTH 21 0
DWIDTH 16 0
BBX 13 13 1 0
BITMAP
0008
0038
00E0
0780
1E00
7800
E000
F000
3C00
0700
01E0
0078
0018
ENDCHAR

STARTCHAR char61
ENCODING 61
SWIDTH 28 0
DWIDTH 18 0
BBX 16 5 0 5
BITMAP
FFFF
0000
0000
0000
FFFF
ENDCHAR

STARTCHAR char62
ENCODING 62
SWIDTH 21 0
DWIDTH 16 0
BBX 13 13 1 0
BITMAP
8000
E000
3800
0F00
03C0
00F0
0038
0078
01E0
0700
3C00
F000
C000
ENDCHAR

STARTCHAR char63
ENCODING 63
SWIDTH 13 0
DWIDTH 14 0
BBX 11 18 1 0
BITMAP
0F00
39C0
F0E0
4060
4060
0060
00C0
0180
0100
0200
0200
0200
0600
0000
0000
0600
0600
0600
ENDCHAR

STARTCHAR char64
ENCODING 64
SWIDTH 24 0
DWIDTH 27 0
BBX 18 18 4 0
BITMAP
07F800
1C0E00
300700
600180
63ED80
C73CC0
CE18C0
CC18C0
DC18C0
D818C0
D83180
D83100
CC7300
479C80
600180
300300
1C0C00
07F000
ENDCHAR

STARTCHAR char65
ENCODING 65
SWIDTH 2 0
DWIDTH 21 0
BBX 19 18 0 0
BITMAP
00E000
00E000
00B000
01B000
01B000
031800
031800
060C00
060C00
0C0600
0C0600
1C0F00
1FFF00
300300
300180
300180
6000C0
E000E0
ENDCHAR

STARTCHAR char66
ENCODING 66
SWIDTH 2 0
DWIDTH 21 0
BBX 16 18 2 0
BITMAP
FFF0
C00C
C006
C002
C002
C002
C002
C00E
FFFC
C00C
C006
C003
C003
C003
C003
C007
C00E
FFF8
ENDCHAR

STARTCHAR char67
ENCODING 67
SWIDTH 6 0
DWIDTH 22 0
BBX 19 18 1 0
BITMAP
01FC00
0F0F00
1C03C0
300080
600080
600000
C00000
C00000
C00000
C00000
C00000
C00000
E00000
600040
7000C0
380380
0E0F00
03FC00
ENDCHAR

STARTCHAR char68
ENCODING 68
SWIDTH 9 0
DWIDTH 23 0
BBX 18 18 1 0
BITMAP
7FF000
601E00
600700
600380
600180
6000C0
6000C0
6000C0
6000C0
6000C0
6000C0
6000C0
6000C0
600180
600180
600300
600E00
7FF800
ENDCHAR

STARTCHAR char69
ENCODING 69
SWIDTH 31 0
DWIDTH 19 0
BBX 15 18 2 0
BITMAP
FFFE
C002
C002
C000
C000
C000
C000
C010
FFE0
C020
C000
C000
C000
C000
C000
C000
C002
FFFE
ENDCHAR

STARTCHAR char70
ENCODING 70
SWIDTH 31 0
DWIDTH 19 0
BBX 16 18 1 0
BITMAP
7FFF
6001
6001
6000
6000
6000
6000
6000
7FF0
6008
6000
6000
6000
6000
6000
6000
6000
F000
ENDCHAR

STARTCHAR char71
ENCODING 71
SWIDTH 9 0
DWIDTH 23 0
BBX 19 18 1 0
BITMAP
03F800
0E0E00
1C03A0
3001C0
600080
600000
C00000
C00000
C00000
C02020
C03FC0
C020C0
C000C0
6000C0
7000C0
3803C0
1E0F00
07FC00
ENDCHAR

STARTCHAR char72
ENCODING 72
SWIDTH 9 0
DWIDTH 23 0
BBX 18 18 1 0
BITMAP
7001C0
600180
600180
600180
600180
600180
600180
600180
7FFF80
600180
600180
600180
600180
600180
600180
600180
600180
700180
ENDCHAR

STARTCHAR char73
ENCODING 73
SWIDTH 25 0
DWIDTH 7 0
BBX 4 18 2 0
BITMAP
E0
C0
C0
C0
C0
C0
C0
C0
C0
C0
C0
C0
C0
C0
C0
C0
C0
F0
ENDCHAR

STARTCHAR char74
ENCODING 74
SWIDTH 24 0
DWIDTH 17 0
BBX 13 18 1 0
BITMAP
0038
0030
0030
0030
0030
0030
0030
0030
0030
0030
0030
0030
0030
0030
4030
C060
F0E0
1F80
ENDCHAR

STARTCHAR char75
ENCODING 75
SWIDTH 2 0
DWIDTH 21 0
BBX 17 18 2 0
BITMAP
E00F00
C00E00
C01800
C07000
C0E000
C1C000
C30000
CF0000
DF8000
F1C000
E0C000
C06000
C03000
C03800
C01800
C00C00
C00600
E00780
ENDCHAR

STARTCHAR char76
ENCODING 76
SWIDTH 31 0
DWIDTH 19 0
BBX 15 18 2 0
BITMAP
E000
C000
C000
C000
C000
C000
C000
C000
C000
C000
C000
C000
C000
C000
C000
C000
C002
FFFE
ENDCHAR

STARTCHAR char77
ENCODING 77
SWIDTH 16 0
DWIDTH 25 0
BBX 20 18 1 0
BITMAP
7800F0
7000F0
7800F0
7801F0
6C01B0
6C03B0
660330
660730
630630
630E30
618C30
618830
609830
60D030
607030
606030
606030
F02070
ENDCHAR

STARTCHAR char78
ENCODING 78
SWIDTH 9 0
DWIDTH 23 0
BBX 18 18 1 0
BITMAP
7801C0
7800C0
7800C0
6C00C0
6600C0
6300C0
6380C0
61C0C0
60E0C0
6060C0
6030C0
6018C0
601CC0
600EC0
6006C0
6003C0
6001C0
6001C0
ENDCHAR

STARTCHAR char79
ENCODING 79
SWIDTH 16 0
DWIDTH 25 0
BBX 20 18 1 0
BITMAP
01FC00
0F0F00
1C0380
3000C0
600060
600060
C00030
C00030
C00030
C00030
C00030
C00030
E00070
600060
7000E0
3801C0
0E0700
03FC00
ENDCHAR

STARTCHAR char80
ENCODING 80
SWIDTH 35 0
DWIDTH 20 0
BBX 15 18 2 0
BITMAP
FFF0
C01C
C00C
C006
C006
C006
C006
C006
C00C
FFF8
C000
C000
C000
C000
C000
C000
C000
E000
ENDCHAR

STARTCHAR char81
ENCODING 81
SWIDTH 9 0
DWIDTH 23 0
BBX 18 20 1 -2
BITMAP
03F000
0E1C00
180700
300300
600180
6001C0
C000C0
C000C0
C000C0
C000C0
C000C0
C000C0
E00180
600180
71E300
383F00
1E1E00
07FE00
000380
000100
ENDCHAR

STARTCHAR char82
ENCODING 82
SWIDTH 2 0
DWIDTH 21 0
BBX 17 18 2 0
BITMAP
FFF800
C03E00
C00E00
C00700
C00300
C00300
C00300
C00600
C00E00
FFF800
E06000
C03000
C03000
C01800
C00C00
C00E00
C00600
E00780
ENDCHAR

STARTCHAR char83
ENCODING 83
SWIDTH 35 0
DWIDTH 20 0
BBX 17 18 0 0
BITMAP
07F800
1E3E80
380700
700100
600100
600000
600000
700000
3F0000
1FFE00
000700
000180
000180
200180
600180
F00300
1C1E00
07F800
ENDCHAR

STARTCHAR char84
ENCODING 84
SWIDTH 35 0
DWIDTH 20 0
BBX 18 18 0 0
BITMAP
FFFF80
80FF80
80C040
00C000
00C000
00C000
00C000
00C000
00C000
00C000
00C000
00C000
00C000
00C000
00C000
00C000
00C000
01C000
ENDCHAR

STARTCHAR char85
ENCODING 85
SWIDTH 6 0
DWIDTH 22 0
BBX 17 18 1 0
BITMAP
E00380
600180
600180
600180
600180
600180
600180
600180
600180
600180
600180
600180
600180
600180
600380
300300
1C0E00
07F800
ENDCHAR

STARTCHAR char86
ENCODING 86
SWIDTH 35 0
DWIDTH 20 0
BBX 18 18 0 0
BITMAP
E001C0
E00180
600380
600300
300300
300600
180600
180C00
1C0C00
0C1800
0C1800
061000
063000
033000
036000
036000
01C000
01C000
ENDCHAR

STARTCHAR char87
ENCODING 87
SWIDTH 34 0
DWIDTH 30 0
BBX 27 18 0 0
BITMAP
E00E00E0
C00E00C0
600E00C0
601A0080
601B0180
30130180
30310300
30318300
18218300
18608600
0860C600
0C40C600
0CC04C00
04C06C00
06806C00
07802800
03003800
07803800
ENDCHAR

STARTCHAR char88
ENCODING 88
SWIDTH 35 0
DWIDTH 20 0
BBX 17 18 0 0
BITMAP
780700
300600
180E00
0C0C00
0E1800
063000
037000
01E000
01C000
01C000
036000
073000
061800
0C1C00
180C00
300600
300300
E00380
ENDCHAR

STARTCHAR char89
ENCODING 89
SWIDTH 31 0
DWIDTH 19 0
BBX 17 18 0 0
BITMAP
E00780
600300
300600
300C00
181800
0C3800
0E3000
066000
03C000
01C000
018000
018000
018000
018000
018000
018000
018000
01C000
ENDCHAR

STARTCHAR char90
ENCODING 90
SWIDTH 31 0
DWIDTH 19 0
BBX 16 18 0 0
BITMAP
FFFE
FE0E
401C
0018
0030
0070
0060
00C0
01C0
0180
0300
0600
0E00
1C00
1800
3800
7001
FFFF
ENDCHAR

STARTCHAR char91
ENCODING 91
SWIDTH 35 0
DWIDTH 10 0
BBX 7 19 2 -1
BITMAP
7C
64
64
60
60
60
60
60
60
60
60
60
60
60
60
60
64
7C
02
ENDCHAR

STARTCHAR char92
ENCODING 92
SWIDTH 25 0
DWIDTH 7 0
BBX 7 18 0 0
BITMAP
C0
C0
40
40
60
60
20
30
30
10
18
18
08
0C
0C
04
06
06
ENDCHAR

STARTCHAR char93
ENCODING 93
SWIDTH 35 0
DWIDTH 10 0
BBX 6 19 1 -1
BITMAP
F8
D8
98
18
18
18
18
18
18
18
18
18
18
18
18
18
98
F8
80
ENDCHAR

STARTCHAR char94
ENCODING 94
SWIDTH 0 0
DWIDTH 0 0
BBX 8 4 -4 19
BITMAP
18
3C
66
C3
ENDCHAR

STARTCHAR char95
ENCODING 95
SWIDTH 17 0
DWIDTH 15 0
BBX 14 1 0 -3
BITMAP
FFFC
ENDCHAR

STARTCHAR char96
ENCODING 96
SWIDTH 0 0
DWIDTH 0 0
BBX 5 4 -4 15
BITMAP
60
30
10
18
ENDCHAR

STARTCHAR char97
ENCODING 97
SWIDTH 28 0
DWIDTH 18 0
BBX 17 15 0 0
BITMAP
038000
018000
03C000
024000
066000
046000
0C3000
0C3000
181800
181800
3FF800
300C00
200400
600600
E00780
ENDCHAR

STARTCHAR char98
ENCODING 98
SWIDTH 28 0
DWIDTH 18 0
BBX 14 15 1 0
BITMAP
7FE0
6018
6008
6008
600C
6008
6018
7FF0
6018
600C
600C
600C
600C
6018
7FF0
ENDCHAR

STARTCHAR char99
ENCODING 99
SWIDTH 31 0
DWIDTH 19 0
BBX 16 15 0 0
BITMAP
03F0
0E1E
1803
3001
6000
C000
C000
C000
C000
C000
6000
7003
3807
1E1E
07F0
ENDCHAR

STARTCHAR char100
ENCODING 100
SWIDTH 31 0
DWIDTH 19 0
BBX 16 15 1 0
BITMAP
7FE0
6018
600C
6006
6006
6003
6003
6003
6003
6003
6006
6006
600C
6038
7FE0
ENDCHAR

STARTCHAR char101
ENCODING 101
SWIDTH 21 0
DWIDTH 16 0
BBX 14 15 1 0
BITMAP
7FF8
6004
6000
6000
6000
6000
6020
7FC0
6020
6000
6000
6000
6000
6004
7FF8
ENDCHAR

STARTCHAR char102
ENCODING 102
SWIDTH 21 0
DWIDTH 16 0
BBX 14 15 1 0
BITMAP
7FF8
4004
4000
4000
4000
4000
4020
7FC0
6020
6000
6000
6000
6000
6000
E000
ENDCHAR

STARTCHAR char103
ENCODING 103
SWIDTH 31 0
DWIDTH 19 0
BBX 16 15 0 0
BITMAP
03F0
0E3C
1807
3002
6000
E000
C000
C020
C03F
C023
6003
6003
3803
1C1E
07F8
ENDCHAR

STARTCHAR char104
ENCODING 104
SWIDTH 31 0
DWIDTH 19 0
BBX 15 15 1 0
BITMAP
E00E
6006
6006
6006
6006
6006
6006
7FFE
6006
6006
6006
6006
6006
6006
E00E
ENDCHAR

STARTCHAR char105
ENCODING 105
SWIDTH 21 0
DWIDTH 6 0
BBX 2 15 2 0
BITMAP
C0
C0
C0
C0
C0
C0
C0
C0
C0
C0
C0
C0
C0
C0
C0
ENDCHAR

STARTCHAR char106
ENCODING 106
SWIDTH 13 0
DWIDTH 14 0
BBX 11 15 0 0
BITMAP
0060
0060
0060
0060
0060
0060
0060
0060
0060
0060
0060
0060
4060
70C0
1F80
ENDCHAR

STARTCHAR char107
ENCODING 107
SWIDTH 28 0
DWIDTH 18 0
BBX 15 15 1 0
BITMAP
E01C
6038
6060
60C0
6180
6700
6F00
7B00
7180
60C0
6060
6020
6030
6018
E01E
ENDCHAR

STARTCHAR char108
ENCODING 108
SWIDTH 21 0
DWIDTH 16 0
BBX 14 15 1 0
BITMAP
6000
6000
6000
6000
6000
6000
6000
6000
6000
6000
6000
6000
6000
6004
7FF8
ENDCHAR

STARTCHAR char109
ENCODING 109
SWIDTH 2 0
DWIDTH 21 0
BBX 17 15 1 0
BITMAP
F00380
700380
700780
680780
680D80
640D80
641980
641980
623180
622180
616180
614180
61C180
608180
E08380
ENDCHAR

STARTCHAR char110
ENCODING 110
SWIDTH 35 0
DWIDTH 20 0
BBX 16 15 1 0
BITMAP
7006
7006
7806
6C06
6606
6606
6306
6186
60C6
6066
6026
6016
600E
600E
F007
ENDCHAR

STARTCHAR char111
ENCODING 111
SWIDTH 2 0
DWIDTH 21 0
BBX 18 15 0 0
BITMAP
03F800
0E1E00
180700
300180
600180
C000C0
C000C0
C000C0
C000C0
C000C0
600180
600180
380300
1C0E00
07F800
ENDCHAR

STARTCHAR char112
ENCODING 112
SWIDTH 24 0
DWIDTH 17 0
BBX 14 15 1 0
BITMAP
7FF0
6038
601C
600C
600C
600C
6018
7FF0
4000
4000
4000
4000
4000
4000
4000
ENDCHAR

STARTCHAR char113
ENCODING 113
SWIDTH 31 0
DWIDTH 19 0
BBX 17 17 0 -2
BITMAP
03F000
0C1800
180C00
300600
600300
C00180
C00180
C00180
C00180
C00380
600300
700700
3BEE00
1C3C00
07FC00
000700
000200
ENDCHAR

STARTCHAR char114
ENCODING 114
SWIDTH 28 0
DWIDTH 18 0
BBX 15 15 1 0
BITMAP
7FE0
6038
600C
600C
600C
600C
6018
7FF0
40C0
4060
4020
4030
4018
4018
400C
ENDCHAR

STARTCHAR char115
ENCODING 115
SWIDTH 28 0
DWIDTH 18 0
BBX 15 15 0 0
BITMAP
07E0
1C7E
300C
6004
6000
6000
3800
0FF8
000C
0006
0006
2006
600C
3C38
07E0
ENDCHAR

STARTCHAR char116
ENCODING 116
SWIDTH 21 0
DWIDTH 16 0
BBX 15 15 0 0
BITMAP
FFFC
8302
0300
0300
0300
0300
0300
0300
0300
0300
0300
0300
0300
0300
0300
ENDCHAR

STARTCHAR char117
ENCODING 117
SWIDTH 31 0
DWIDTH 19 0
BBX 15 15 1 0
BITMAP
E00C
600C
600C
600C
600C
600C
600C
600C
600C
600C
600C
600C
600C
3038
0FE0
ENDCHAR

STARTCHAR char118
ENCODING 118
SWIDTH 24 0
DWIDTH 17 0
BBX 15 15 0 0
BITMAP
C00E
400C
600C
2008
3018
3010
1830
1820
0860
0C60
0440
06C0
0680
0380
0380
ENDCHAR

STARTCHAR char119
ENCODING 119
SWIDTH 16 0
DWIDTH 25 0
BBX 23 15 0 0
BITMAP
C0380E
C0300C
40380C
606808
204C18
304C10
30C410
108630
188620
198220
090360
0D0340
070140
0601C0
0701C0
ENDCHAR

STARTCHAR char120
ENCODING 120
SWIDTH 21 0
DWIDTH 16 0
BBX 14 15 0 0
BITMAP
701C
3018
3830
1860
0CC0
0680
0380
0300
0780
0CC0
1860
1830
3038
6018
E00C
ENDCHAR

STARTCHAR char121
ENCODING 121
SWIDTH 21 0
DWIDTH 16 0
BBX 14 15 0 0
BITMAP
E01C
6018
2030
3030
1860
0CC0
0580
0780
0300
0300
0300
0300
0300
0300
0380
ENDCHAR

STARTCHAR char122
ENCODING 122
SWIDTH 21 0
DWIDTH 16 0
BBX 13 15 1 0
BITMAP
FFF0
8070
0060
00C0
01C0
0180
0300
0600
0E00
0C00
1800
3000
3000
6008
FFF8
ENDCHAR

STARTCHAR char123
ENCODING 123
SWIDTH 32 0
DWIDTH 9 0
BBX 6 23 1 -5
BITMAP
1C
38
30
30
30
30
30
30
30
30
60
C0
60
30
30
30
30
30
30
30
30
38
1C
ENDCHAR

STARTCHAR char124
ENCODING 124
SWIDTH 25 0
DWIDTH 7 0
BBX 2 18 2 0
BITMAP
C0
C0
C0
C0
C0
C0
C0
C0
C0
C0
C0
C0
C0
C0
C0
C0
C0
C0
ENDCHAR

STARTCHAR char125
ENCODING 125
SWIDTH 32 0
DWIDTH 9 0
BBX 6 23 1 -5
BITMAP
E0
30
30
30
30
30
30
30
30
38
1C
0C
18
38
30
30
30
30
30
30
30
30
E0
ENDCHAR

STARTCHAR char126
ENCODING 126
SWIDTH 0 0
DWIDTH 0 0
BBX 12 3 -6 19
BITMAP
3C70
6FC0
4380
ENDCHAR

STARTCHAR char128
ENCODING 128
SWIDTH 6 0
DWIDTH 22 0
BBX 23 18 -1 0
BITMAP
003FC0
00E1F0
01C03C
070008
060008
0C0000
7FFFC0
180000
180000
FFFFC0
180000
1C0000
0C0000
0E0008
07000C
038038
01E0F0
003F80
ENDCHAR

STARTCHAR char130
ENCODING 130
SWIDTH 14 0
DWIDTH 4 0
BBX 2 5 1 -3
BITMAP
C0
C0
40
40
40
ENDCHAR

STARTCHAR char131
ENCODING 131
SWIDTH 0 0
DWIDTH 0 0
BBX 8 4 -4 19
BITMAP
18
3C
66
C3
ENDCHAR

STARTCHAR char132
ENCODING 132
SWIDTH 28 0
DWIDTH 8 0
BBX 5 6 1 -3
BITMAP
D8
D8
D8
48
48
88
ENDCHAR

STARTCHAR char133
ENCODING 133
SWIDTH 24 0
DWIDTH 27 0
BBX 19 3 3 0
BITMAP
C0C060
C0C060
C0C060
ENDCHAR

STARTCHAR char134
ENCODING 134
SWIDTH 21 0
DWIDTH 16 0
BBX 13 23 1 -5
BITMAP
0E00
0600
0600
0600
0600
8608
FFF0
8608
0600
0600
0600
0600
0600
0600
0600
0600
0600
0600
0600
0600
0600
0600
0600
ENDCHAR

STARTCHAR char136
ENCODING 136
SWIDTH 0 0
DWIDTH 0 0
BBX 8 4 -4 15
BITMAP
18
2C
46
C7
ENDCHAR

STARTCHAR char138
ENCODING 138
SWIDTH 16 0
DWIDTH 25 0
BBX 0 0 0 0
BITMAP
ENDCHAR

STARTCHAR char139
ENCODING 139
SWIDTH 32 0
DWIDTH 9 0
BBX 4 8 2 3
BITMAP
10
30
70
C0
C0
60
30
10
ENDCHAR

STARTCHAR char140
ENCODING 140
SWIDTH 31 0
DWIDTH 29 0
BBX 25 18 1 0
BITMAP
01FFFF80
0E1FFF80
1C0C0080
300C0000
600C0000
E00C0000
C00C0000
C00C0400
C00FF800
C00C0800
C00C0000
C00C0000
E00C0000
600C0000
700C0000
380C0000
1E0FFF80
03FFFF80
ENDCHAR

STARTCHAR char141
ENCODING 141
SWIDTH 16 0
DWIDTH 25 0
BBX 0 0 0 0
BITMAP
ENDCHAR

STARTCHAR char145
ENCODING 145
SWIDTH 17 0
DWIDTH 5 0
BBX 2 6 1 12
BITMAP
40
40
80
C0
C0
C0
ENDCHAR

STARTCHAR char146
ENCODING 146
SWIDTH 17 0
DWIDTH 5 0
BBX 2 5 1 13
BITMAP
C0
C0
C0
40
40
ENDCHAR

STARTCHAR char147
ENCODING 147
SWIDTH 28 0
DWIDTH 8 0
BBX 5 6 1 12
BITMAP
48
48
90
D8
D8
D8
ENDCHAR

STARTCHAR char148
ENCODING 148
SWIDTH 28 0
DWIDTH 8 0
BBX 5 5 1 13
BITMAP
D8
D8
48
48
48
ENDCHAR

STARTCHAR char149
ENCODING 149
SWIDTH 32 0
DWIDTH 9 0
BBX 7 6 1 6
BITMAP
38
7C
FE
FE
FE
38
ENDCHAR

STARTCHAR char150
ENCODING 150
SWIDTH 2 0
DWIDTH 21 0
BBX 18 1 0 7
BITMAP
FFFFC0
ENDCHAR

STARTCHAR char151
ENCODING 151
SWIDTH 28 0
DWIDTH 18 0
BBX 16 1 0 7
BITMAP
FFFF
ENDCHAR

STARTCHAR char152
ENCODING 152
SWIDTH 0 0
DWIDTH 0 0
BBX 8 3 -4 16
BITMAP
01
71
8E
ENDCHAR

STARTCHAR char153
ENCODING 153
SWIDTH 13 0
DWIDTH 24 0
BBX 20 9 0 7
BITMAP
FF7030
993050
183870
1828B0
182CB0
182530
182730
182230
3C7270
ENDCHAR

STARTCHAR char155
ENCODING 155
SWIDTH 32 0
DWIDTH 9 0
BBX 4 8 2 3
BITMAP
80
C0
70
30
30
70
C0
80
ENDCHAR

STARTCHAR char156
ENCODING 156
SWIDTH 13 0
DWIDTH 24 0
BBX 21 15 1 0
BITMAP
07FFF0
1C7FF0
306000
606000
406000
C06000
C06040
C07F80
C06040
C06000
C06000
606000
306000
1C6008
07FFF0
ENDCHAR

STARTCHAR char157
ENCODING 157
SWIDTH 16 0
DWIDTH 25 0
BBX 0 0 0 0
BITMAP
ENDCHAR

STARTCHAR char159
ENCODING 159
SWIDTH 31 0
DWIDTH 19 0
BBX 17 22 0 0
BITMAP
183800
183800
183800
000000
C00780
600300
300600
300C00
180800
0C1800
0E3000
066000
03C000
01C000
018000
018000
018000
018000
018000
018000
018000
018000
ENDCHAR

STARTCHAR char160
ENCODING 160
SWIDTH 6 0
DWIDTH 12 0
BBX 0 0 0 0
BITMAP
ENDCHAR

STARTCHAR char161
ENCODING 161
SWIDTH 21 0
DWIDTH 6 0
BBX 4 18 0 0
BITMAP
60
60
00
00
00
60
40
40
40
40
60
60
60
60
60
60
60
E0
ENDCHAR

STARTCHAR char162
ENCODING 162
SWIDTH 31 0
DWIDTH 19 0
BBX 16 19 0 -2
BITMAP
00C0
00C0
03F8
0FFE
18C3
30C1
60C0
C0C0
C0C0
C0C0
C0C0
C0C0
60C0
70C3
38C7
1EDE
07F0
00C0
00C0
ENDCHAR

STARTCHAR char163
ENCODING 163
SWIDTH 2 0
DWIDTH 21 0
BBX 18 18 1 0
BITMAP
03F800
0E0E00
1C03C0
180180
300080
300000
300000
300000
B02000
FFE000
B82000
300000
300000
300000
300000
300000
B00080
FFFF00
ENDCHAR

STARTCHAR char164
ENCODING 164
SWIDTH 0 0
DWIDTH 0 0
BBX 7 5 -2 18
BITMAP
0C
18
30
60
A0
ENDCHAR

STARTCHAR char165
ENCODING 165
SWIDTH 0 0
DWIDTH 0 0
BBX 8 4 -4 19
BITMAP
C3
62
34
18
ENDCHAR

STARTCHAR char166
ENCODING 166
SWIDTH 16 0
DWIDTH 25 0
BBX 0 0 0 0
BITMAP
ENDCHAR

STARTCHAR char167
ENCODING 167
SWIDTH 17 0
DWIDTH 15 0
BBX 12 23 0 -5
BITMAP
0F00
19C0
30E0
3040
3000
3000
1C00
1F00
3380
60E0
6060
6030
6030
3030
1C30
0F60
03C0
00C0
0060
4060
E060
38C0
0F80
ENDCHAR

STARTCHAR char168
ENCODING 168
SWIDTH 0 0
DWIDTH 0 0
BBX 8 2 -4 17
BITMAP
01
C3
ENDCHAR

STARTCHAR char169
ENCODING 169
SWIDTH 2 0
DWIDTH 21 0
BBX 17 16 1 0
BITMAP
07F000
081800
300600
21F200
423100
C41180
CC1180
CC0180
CC0180
CC0180
CC0180
463100
63C300
300600
180C00
07F000
ENDCHAR

STARTCHAR char170
ENCODING 170
SWIDTH 0 0
DWIDTH 0 0
BBX 9 3 -4 19
BITMAP
C380
C380
C380
ENDCHAR

STARTCHAR char171
ENCODING 171
SWIDTH 3 0
DWIDTH 11 0
BBX 7 10 2 2
BITMAP
36
64
6C
C8
D8
D8
48
6C
24
36
ENDCHAR

STARTCHAR char172
ENCODING 172
SWIDTH 31 0
DWIDTH 19 0
BBX 17 7 0 0
BITMAP
FFFF80
000180
000180
000180
000180
000180
000180
ENDCHAR

STARTCHAR char174
ENCODING 174
SWIDTH 2 0
DWIDTH 21 0
BBX 17 16 1 0
BITMAP
07E000
0C1800
300400
27E200
463100
463100
C63180
C7C180
C6C180
C66180
C67180
463100
673B00
200200
180C00
07F000
ENDCHAR

STARTCHAR char176
ENCODING 176
SWIDTH 6 0
DWIDTH 12 0
BBX 8 7 -1 9
BITMAP
3C
42
C3
C3
C3
66
38
ENDCHAR

STARTCHAR char177
ENCODING 177
SWIDTH 17 0
DWIDTH 15 0
BBX 13 15 0 0
BITMAP
0300
0300
0300
0300
0300
FFF8
0300
0300
0300
0300
0300
0300
0000
0000
FFF8
ENDCHAR

STARTCHAR char179
ENCODING 179
SWIDTH 16 0
DWIDTH 25 0
BBX 0 0 0 0
BITMAP
ENDCHAR

STARTCHAR char180
ENCODING 180
SWIDTH 0 0
DWIDTH 0 0
BBX 5 4 -1 15
BITMAP
30
60
40
C0
ENDCHAR

STARTCHAR char182
ENCODING 182
SWIDTH 28 0
DWIDTH 18 0
BBX 11 22 2 -4
BITMAP
1FE0
3C60
7C60
FC60
FC60
FC60
FC60
7C60
7C60
3C60
0C60
0C60
0C60
0C60
0C60
0C60
0C60
0C60
0C60
0C60
0C60
0C60
ENDCHAR

STARTCHAR char183
ENCODING 183
SWIDTH 17 0
DWIDTH 5 0
BBX 2 3 1 6
BITMAP
C0
C0
C0
ENDCHAR

STARTCHAR char184
ENCODING 184
SWIDTH 0 0
DWIDTH 0 0
BBX 6 4 -3 -4
BITMAP
38
2C
0C
F8
ENDCHAR

STARTCHAR char185
ENCODING 185
SWIDTH 16 0
DWIDTH 25 0
BBX 0 0 0 0
BITMAP
ENDCHAR

STARTCHAR char186
ENCODING 186
SWIDTH 0 0
DWIDTH 0 0
BBX 12 3 -6 19
BITMAP
3C70
6FC0
4380
ENDCHAR

STARTCHAR char187
ENCODING 187
SWIDTH 3 0
DWIDTH 11 0
BBX 7 11 1 2
BITMAP
D8
48
6C
24
36
12
36
24
6C
4C
D8
ENDCHAR

STARTCHAR char189
ENCODING 189
SWIDTH 16 0
DWIDTH 25 0
BBX 0 0 0 0
BITMAP
ENDCHAR

STARTCHAR char191
ENCODING 191
SWIDTH 13 0
DWIDTH 14 0
BBX 11 18 0 0
BITMAP
0C00
0C00
0C00
0000
0000
0E00
0800
0800
0800
1000
3000
6000
E000
C000
C040
C0E0
6380
3E00
ENDCHAR

STARTCHAR char192
ENCODING 192
SWIDTH 2 0
DWIDTH 21 0
BBX 19 23 0 0
BITMAP
060000
030000
018000
00C000
00E000
00E000
00E000
00B000
01B000
01B000
031800
031800
060C00
060C00
0C0600
0C0600
1C0F00
1FFF00
300300
300180
300180
6000C0
E000E0
ENDCHAR

STARTCHAR char193
ENCODING 193
SWIDTH 2 0
DWIDTH 21 0
BBX 19 23 0 0
BITMAP
001800
003000
006000
00C000
00A000
00E000
00E000
00B000
01B000
01B000
031800
031800
060C00
060C00
0C0600
0C0600
1C0F00
1FFF00
300300
300180
300180
6000C0
E000E0
ENDCHAR

STARTCHAR char194
ENCODING 194
SWIDTH 2 0
DWIDTH 21 0
BBX 19 23 0 0
BITMAP
00C000
01E000
033000
061800
000000
00E000
00E000
00B000
01B000
01B000
031800
031800
060C00
060C00
0C0600
0C0600
1C0F00
1FFF00
300300
300180
300180
6000C0
E000E0
ENDCHAR

STARTCHAR char195
ENCODING 195
SWIDTH 2 0
DWIDTH 21 0
BBX 19 22 0 0
BITMAP
038700
0CF800
087800
000000
00E000
00E000
00B000
01B000
01B000
031800
031800
060C00
060C00
0C0600
0C0600
1C0F00
1FFF00
300300
300180
300180
6000C0
E000E0
ENDCHAR

STARTCHAR char196
ENCODING 196
SWIDTH 2 0
DWIDTH 21 0
BBX 19 19 0 0
BITMAP
0C0600
0CE600
0CE600
00E000
01B000
013000
031000
031800
060800
060C00
0C0400
0C0400
1C0E00
1FFE00
300300
300180
700180
6000C0
E000E0
ENDCHAR

STARTCHAR char197
ENCODING 197
SWIDTH 2 0
DWIDTH 21 0
BBX 19 22 0 0
BITMAP
01F000
031800
031800
01F000
01F000
00E000
00B000
01B000
01B000
031800
031800
060C00
060C00
0C0600
0C0600
1C0F00
1FFF00
300300
300180
300180
6000C0
E000E0
ENDCHAR

STARTCHAR char198
ENCODING 198
SWIDTH 27 0
DWIDTH 28 0
BBX 24 18 1 0
BITMAP
00FFFF
00D801
019801
019800
031800
031800
061800
061808
0E1FF0
0C1810
1C1800
181800
3FF800
301800
601800
601800
C01801
C01FFF
ENDCHAR

STARTCHAR char199
ENCODING 199
SWIDTH 6 0
DWIDTH 22 0
BBX 19 22 1 -4
BITMAP
01FC00
0F0F00
1C03C0
3000C0
600080
600000
C00000
C00000
C00000
C00000
C00000
C00000
E00000
600040
7000C0
3C03C0
0FFF00
03F800
00F000
017000
003000
03E000
ENDCHAR

STARTCHAR char200
ENCODING 200
SWIDTH 31 0
DWIDTH 19 0
BBX 15 23 2 0
BITMAP
3800
1800
0C00
0600
0700
FFFE
C002
C002
C000
C000
C000
C000
C010
FFE0
C020
C000
C000
C000
C000
C000
C000
C002
FFFE
ENDCHAR

STARTCHAR char201
ENCODING 201
SWIDTH 31 0
DWIDTH 19 0
BBX 15 23 2 0
BITMAP
00E0
0180
0300
0200
0500
FFFE
C002
C002
C000
C000
C000
C000
C010
FFE0
C020
C000
C000
C000
C000
C000
C000
C002
FFFE
ENDCHAR

STARTCHAR char202
ENCODING 202
SWIDTH 31 0
DWIDTH 19 0
BBX 15 23 2 0
BITMAP
0700
0700
0980
30C0
0000
FFFE
C002
C002
C000
C000
C000
C000
C010
FFE0
C020
C000
C000
C000
C000
C000
C000
C002
FFFE
ENDCHAR

STARTCHAR char203
ENCODING 203
SWIDTH 31 0
DWIDTH 19 0
BBX 15 22 2 0
BITMAP
30E0
70E0
30E0
0000
FFFE
C002
C002
C000
C000
C000
C000
C020
FFE0
C020
C000
C000
C000
C000
C000
C000
C002
FFFE
ENDCHAR

STARTCHAR char204
ENCODING 204
SWIDTH 25 0
DWIDTH 7 0
BBX 8 23 -2 0
BITMAP
60
30
18
08
0C
0E
0C
0C
0C
0C
0C
0C
0C
0C
0C
0C
0C
0C
0C
0C
0C
0C
0F
ENDCHAR

STARTCHAR char205
ENCODING 205
SWIDTH 25 0
DWIDTH 7 0
BBX 6 23 2 0
BITMAP
1C
38
30
60
A0
E0
60
60
60
60
60
60
60
60
60
60
60
60
60
60
60
60
F0
ENDCHAR

STARTCHAR char206
ENCODING 206
SWIDTH 25 0
DWIDTH 7 0
BBX 8 23 -1 0
BITMAP
18
3C
6E
C3
00
1C
18
18
18
18
18
18
18
18
18
18
18
18
18
18
18
18
1E
ENDCHAR

STARTCHAR char207
ENCODING 207
SWIDTH 25 0
DWIDTH 7 0
BBX 8 22 -1 0
BITMAP
C3
C3
C3
00
1C
18
18
18
18
18
18
18
18
18
18
18
18
18
18
18
18
1C
ENDCHAR

STARTCHAR char209
ENCODING 209
SWIDTH 9 0
DWIDTH 23 0
BBX 18 22 1 0
BITMAP
078700
0CF800
087800
000000
F801C0
7800C0
7800C0
6C00C0
6600C0
6300C0
6380C0
61C0C0
60E0C0
6060C0
6030C0
6018C0
601CC0
600EC0
6006C0
6003C0
6001C0
6001C0
ENDCHAR

STARTCHAR char210
ENCODING 210
SWIDTH 16 0
DWIDTH 25 0
BBX 20 23 1 0
BITMAP
070000
038000
00C000
00C000
006000
01FC00
0F0F00
1C0380
3000C0
600060
600060
C00030
C00030
C00030
C00030
C00030
C00030
E00070
600060
7000E0
3801C0
0E0700
03FC00
ENDCHAR

STARTCHAR char211
ENCODING 211
SWIDTH 16 0
DWIDTH 25 0
BBX 20 23 1 0
BITMAP
001C00
001800
003000
006000
00A000
01FC00
0F0F00
1C0380
3000C0
600060
600060
C00030
C00030
C00030
C00030
C00030
C00030
E00070
600060
7000E0
3801C0
0E0700
03FC00
ENDCHAR

STARTCHAR char212
ENCODING 212
SWIDTH 16 0
DWIDTH 25 0
BBX 20 23 1 0
BITMAP
00E000
00E000
013000
021800
000000
01FC00
0F0F00
1C0380
3000C0
600060
600060
C00030
C00030
C00030
C00030
C00030
C00030
E00070
600060
7000E0
3801C0
0E0700
03FC00
ENDCHAR

STARTCHAR char213
ENCODING 213
SWIDTH 16 0
DWIDTH 25 0
BBX 20 22 1 0
BITMAP
038700
06FC00
043800
000000
01FC00
0F0F00
1C0380
3000C0
600060
600060
C00030
C00030
C00030
C00030
C00030
C00030
E00070
600060
7000E0
3801C0
0E0700
03FC00
ENDCHAR

STARTCHAR char214
ENCODING 214
SWIDTH 16 0
DWIDTH 25 0
BBX 20 19 1 0
BITMAP
200060
21FC60
0F0F00
1C0380
3000C0
600060
600060
C00030
C00030
C00030
C00030
C00030
C00030
E00070
600060
7000E0
3801C0
0E0700
03FC00
ENDCHAR

STARTCHAR char216
ENCODING 216
SWIDTH 16 0
DWIDTH 25 0
BBX 21 18 0 0
BITMAP
00FC10
0707B0
0E01E0
1800E0
3001F0
300330
600418
601818
603018
606018
60C018
618018
630038
360030
3C0060
3C00E0
2F0380
41FE00
ENDCHAR

STARTCHAR char217
ENCODING 217
SWIDTH 6 0
DWIDTH 22 0
BBX 17 23 1 0
BITMAP
0E0000
070000
030000
018000
01C000
E00380
600180
600180
600180
600180
600180
600180
600180
600180
600180
600180
600180
600180
600180
600380
300300
1C0E00
07F800
ENDCHAR

STARTCHAR char218
ENCODING 218
SWIDTH 6 0
DWIDTH 22 0
BBX 17 23 1 0
BITMAP
003800
007000
006000
00C000
018000
E00380
600180
600180
600180
600180
600180
600180
600180
600180
600180
600180
600180
600180
600180
600380
300300
1C0E00
07F800
ENDCHAR

STARTCHAR char219
ENCODING 219
SWIDTH 6 0
DWIDTH 22 0
BBX 17 23 1 0
BITMAP
01C000
01C000
026000
043000
000000
E00380
600180
600180
600180
600180
600180
600180
600180
600180
600180
600180
600180
600180
600180
600380
300300
1C0E00
07F800
ENDCHAR

STARTCHAR char220
ENCODING 220
SWIDTH 6 0
DWIDTH 22 0
BBX 17 19 1 0
BITMAP
063000
E63380
663180
600180
600180
600180
600180
600180
600180
600180
600180
600180
600180
600180
600180
600380
300300
1C0E00
07F800
ENDCHAR

STARTCHAR char222
ENCODING 222
SWIDTH 16 0
DWIDTH 25 0
BBX 0 0 0 0
BITMAP
ENDCHAR

STARTCHAR char223
ENCODING 223
SWIDTH 5 0
DWIDTH 32 0
BBX 32 15 -1 0
BITMAP
07E007F0
1C7E1C3E
300C3006
60046002
60006000
60006000
38003800
1FF81FFC
001C000E
00060007
00060003
20062003
600C7006
3C383E1C
07E007F0
ENDCHAR

STARTCHAR char224
ENCODING 224
SWIDTH 28 0
DWIDTH 18 0
BBX 17 19 0 0
BITMAP
0E0000
060000
030000
018000
038000
038000
03C000
024000
066000
046000
0C3000
0C3000
181800
181800
3FF800
300C00
200400
600600
E00780
ENDCHAR

STARTCHAR char225
ENCODING 225
SWIDTH 28 0
DWIDTH 18 0
BBX 17 19 0 0
BITMAP
006000
00C000
018000
030000
038000
038000
03C000
024000
066000
046000
0C3000
0C3000
181800
181800
3FF800
300C00
200400
600600
E00780
ENDCHAR

STARTCHAR char226
ENCODING 226
SWIDTH 28 0
DWIDTH 18 0
BBX 17 19 0 0
BITMAP
018000
02C000
046000
0C7000
038000
038000
03C000
024000
066000
046000
0C3000
0C3000
181800
181800
3FF800
300C00
200400
600600
E00780
ENDCHAR

STARTCHAR char227
ENCODING 227
SWIDTH 28 0
DWIDTH 18 0
BBX 17 19 0 0
BITMAP
001000
061000
19E000
000000
038000
038000
03C000
024000
066000
046000
0C3000
0C3000
181800
181800
3FF800
300C00
200400
600600
E00780
ENDCHAR

STARTCHAR char228
ENCODING 228
SWIDTH 28 0
DWIDTH 18 0
BBX 17 19 0 0
BITMAP
040000
0C3000
000000
000000
03C000
038000
03C000
024000
066000
042000
0C3000
0C1000
181800
180800
3FF800
200C00
200400
600600
E00780
ENDCHAR

STARTCHAR char229
ENCODING 229
SWIDTH 28 0
DWIDTH 18 0
BBX 16 19 0 0
BITMAP
03C0
0660
0660
03C0
03C0
03C0
03C0
0240
0660
0460
0C30
0C30
1818
1818
3FFC
300C
6006
6006
E007
ENDCHAR

STARTCHAR char230
ENCODING 230
SWIDTH 9 0
DWIDTH 23 0
BBX 21 15 0 0
BITMAP
01F038
01FFF8
016000
036000
026000
066000
046040
0C7F80
086040
186000
1FE000
306000
606000
406008
C07FF0
ENDCHAR

STARTCHAR char231
ENCODING 231
SWIDTH 31 0
DWIDTH 19 0
BBX 16 19 0 -4
BITMAP
03F8
0E1E
1803
3001
6000
C000
C000
C000
C000
C000
6000
7003
3807
1E0E
03F8
01C0
0160
0060
07C0
ENDCHAR

STARTCHAR char232
ENCODING 232
SWIDTH 21 0
DWIDTH 16 0
BBX 14 19 1 0
BITMAP
1800
0C00
0400
0600
7FF8
6004
6000
6000
6000
6000
6020
7FC0
6020
6000
6000
6000
6000
6004
7FF8
ENDCHAR

STARTCHAR char233
ENCODING 233
SWIDTH 21 0
DWIDTH 16 0
BBX 14 19 1 0
BITMAP
0180
0300
0200
0600
7FF8
6004
6000
6000
6000
6000
6020
7FC0
6020
6000
6000
6000
6000
6004
7FF8
ENDCHAR

STARTCHAR char234
ENCODING 234
SWIDTH 21 0
DWIDTH 16 0
BBX 14 19 1 0
BITMAP
0600
0B00
1180
31C0
7FF8
6004
6000
6000
6000
6000
6020
7FC0
6020
6000
6000
6000
6000
6004
7FF8
ENDCHAR

STARTCHAR char235
ENCODING 235
SWIDTH 21 0
DWIDTH 16 0
BBX 14 18 1 0
BITMAP
30C0
0000
0000
7FF8
6004
6000
6000
6000
6000
6020
7FC0
6020
6000
6000
6000
6000
6004
7FF8
ENDCHAR

STARTCHAR char236
ENCODING 236
SWIDTH 21 0
DWIDTH 6 0
BBX 5 19 -1 0
BITMAP
E0
20
30
18
18
18
18
18
18
18
18
18
18
18
18
18
18
18
18
ENDCHAR

STARTCHAR char237
ENCODING 237
SWIDTH 21 0
DWIDTH 6 0
BBX 6 19 1 0
BITMAP
18
10
20
60
E0
60
60
60
60
60
60
60
60
60
60
60
60
60
60
ENDCHAR

STARTCHAR char238
ENCODING 238
SWIDTH 21 0
DWIDTH 6 0
BBX 7 19 -1 0
BITMAP
38
38
4C
86
38
30
30
30
30
30
30
30
30
30
30
30
30
30
38
ENDCHAR

STARTCHAR char239
ENCODING 239
SWIDTH 21 0
DWIDTH 6 0
BBX 7 18 -1 0
BITMAP
C6
00
00
38
18
18
18
18
18
18
18
18
18
18
18
18
18
38
ENDCHAR

STARTCHAR char241
ENCODING 241
SWIDTH 35 0
DWIDTH 20 0
BBX 16 19 1 0
BITMAP
0020
0E30
11E0
0000
7006
7006
7806
6C06
6606
6606
6306
6186
60C6
6066
6026
6016
600E
600E
F007
ENDCHAR

STARTCHAR char242
ENCODING 242
SWIDTH 2 0
DWIDTH 21 0
BBX 18 19 0 0
BITMAP
030000
010000
008000
00C000
03F800
0E1E00
180700
300180
600180
C000C0
C000C0
C000C0
C000C0
C000C0
600180
600180
380300
1C0E00
07F800
ENDCHAR

STARTCHAR char243
ENCODING 243
SWIDTH 2 0
DWIDTH 21 0
BBX 18 19 0 0
BITMAP
003000
006000
004000
00C000
03F800
0E1E00
180700
300180
600180
C000C0
C000C0
C000C0
C000C0
C000C0
600180
600180
380300
1C0E00
07F800
ENDCHAR

STARTCHAR char244
ENCODING 244
SWIDTH 2 0
DWIDTH 21 0
BBX 18 19 0 0
BITMAP
00C000
016000
023000
063800
03F800
0E1E00
180700
300180
600180
C000C0
C000C0
C000C0
C000C0
C000C0
600180
600180
380300
1C0E00
07F800
ENDCHAR

STARTCHAR char245
ENCODING 245
SWIDTH 2 0
DWIDTH 21 0
BBX 18 19 0 0
BITMAP
000800
038800
0C7000
000000
03F800
0E1E00
180700
300180
600180
C000C0
C000C0
C000C0
C000C0
C000C0
600180
600180
380300
1C0E00
07F800
ENDCHAR

STARTCHAR char246
ENCODING 246
SWIDTH 2 0
DWIDTH 21 0
BBX 18 18 0 0
BITMAP
061800
020000
000000
03F800
0E1E00
180700
300180
600180
C000C0
C000C0
C000C0
C000C0
C000C0
600180
600180
380300
0C0E00
03F800
ENDCHAR

STARTCHAR char247
ENCODING 247
SWIDTH 17 0
DWIDTH 15 0
BBX 13 9 0 2
BITMAP
0600
0600
0600
0000
FFF8
0000
0600
0600
0600
ENDCHAR

STARTCHAR char248
ENCODING 248
SWIDTH 2 0
DWIDTH 21 0
BBX 18 15 0 0
BITMAP
03F080
0E1F00
180700
300580
600980
C030C0
C060C0
C0C0C0
C180C0
C300C0
640180
680180
380300
7C0E00
C7F800
ENDCHAR

STARTCHAR char249
ENCODING 249
SWIDTH 31 0
DWIDTH 19 0
BBX 15 19 1 0
BITMAP
0C00
0400
0200
0300
E00C
600C
600C
600C
600C
600C
600C
600C
600C
600C
600C
600C
600C
3038
0FE0
ENDCHAR

STARTCHAR char250
ENCODING 250
SWIDTH 31 0
DWIDTH 19 0
BBX 15 19 1 0
BITMAP
00C0
0180
0100
0300
E00C
600C
600C
600C
600C
600C
600C
600C
600C
600C
600C
600C
600C
3038
0FE0
ENDCHAR

STARTCHAR char251
ENCODING 251
SWIDTH 31 0
DWIDTH 19 0
BBX 15 19 1 0
BITMAP
0300
0580
08C0
18E0
E00C
600C
600C
600C
600C
600C
600C
600C
600C
600C
600C
600C
600C
3038
0FE0
ENDCHAR

STARTCHAR char252
ENCODING 252
SWIDTH 31 0
DWIDTH 19 0
BBX 15 18 1 0
BITMAP
0C60
0400
0000
E00C
600C
600C
600C
600C
600C
600C
600C
600C
600C
600C
600C
600C
3038
0FE0
ENDCHAR

STARTCHAR char255
ENCODING 255
SWIDTH 21 0
DWIDTH 16 0
BBX 14 18 0 0
BITMAP
18E0
0000
0000
E01C
6018
2030
3070
1860
0CC0
0580
0780
0300
0300
0300
0300
0300
0300
0380
ENDCHAR
ENDFONT
